<svg width="128" height="128" viewBox="0 0 128 128" fill="none" xmlns="http://www.w3.org/2000/svg">
  <rect width="128" height="128" rx="32" fill="#0F172A"/>
  <path d="M26 75C26 63.9543 34.9543 55 46 55C49.4952 55 52.7808 55.8966 55.6388 57.4722C58.6572 48.8383 66.8785 42.6667 76.5 42.6667C88.7613 42.6667 98.7778 52.6833 98.7778 64.9444C98.7778 65.5196 98.7544 66.0892 98.7086 66.6524C104.451 68.7318 108.556 74.2346 108.556 80.6667C108.556 88.8659 101.911 95.5111 93.7118 95.5111H47.1111C35.4511 95.5111 26 86.06 26 74.4V75Z" fill="#38BDF8"/>
  <path d="M46 72L39 85H53L46 72Z" fill="#2FB874"/>
  <path d="M64 68L56 95H72L64 68Z" fill="#2FB874"/>
  <path d="M81 74L74 89H88L81 74Z" fill="#2FB874"/>
</svg>
